<svg width="23" height="23" viewBox="0 0 23 23" fill="none" xmlns="http://www.w3.org/2000/svg">
<circle cx="11.5" cy="11.5" r="11" fill="white" stroke="#2274A5"/>
<path d="M14.1594 16.9173H8.85104C7.93021 16.9173 7.17188 16.1644 7.17188 15.2382V7.76315C7.17188 6.84232 7.92479 6.08398 8.85104 6.08398H14.1594C15.0802 6.08398 15.8385 6.8369 15.8385 7.76315V15.2382C15.8385 16.1644 15.0856 16.9173 14.1594 16.9173Z" stroke="#2274A5" stroke-linecap="round" stroke-linejoin="round"/>
<path d="M15.026 12.0423H7.98437C7.53479 12.0423 7.17188 11.6794 7.17188 11.2298V10.1465C7.17188 9.6969 7.53479 9.33398 7.98437 9.33398H15.026C15.4756 9.33398 15.8385 9.6969 15.8385 10.1465V11.2298C15.8385 11.6794 15.4756 12.0423 15.026 12.0423Z" stroke="#2274A5" stroke-linecap="round" stroke-linejoin="round"/>
<path d="M9.59598 14.5877H9.60085" stroke="#2274A5" stroke-linecap="round" stroke-linejoin="round"/>
<path d="M13.3929 14.5877H13.3977" stroke="#2274A5" stroke-linecap="round" stroke-linejoin="round"/>
<path d="M10.1406 7.70898H12.849" stroke="#2274A5" stroke-linecap="round" stroke-linejoin="round"/>
</svg>
