<svg width="23" height="23" viewBox="0 0 23 23" fill="none" xmlns="http://www.w3.org/2000/svg">
<circle cx="11.5" cy="11.5" r="11" fill="white" stroke="#2274A5"/>
<path d="M5.44246 9.91404L6.66901 11.3721C6.85674 11.5911 6.85674 11.9541 6.66901 12.1731L5.44246 13.6312C5.2735 13.9691 5.44246 14.3822 5.80542 14.5073L6.63772 14.7827C6.83797 14.8515 7.13209 14.7827 7.28228 14.6325L8.70907 13.2119C8.8092 13.1056 9.00945 13.0242 9.15338 13.0242H10.9369C11.1997 13.0242 11.3249 13.2182 11.2247 13.4623L9.89807 16.5349C9.69156 17.0167 9.94813 17.411 10.4738 17.411H11.2811C11.7003 17.411 12.1822 17.0981 12.3449 16.7101L13.853 13.2119C13.8969 13.1118 14.0283 13.0242 14.1409 13.0242H16.0183C16.6065 13.0242 17.3011 12.5924 17.5702 12.0667C17.6641 11.879 17.6641 11.66 17.5702 11.4722C17.3011 10.9466 16.6003 10.5148 16.012 10.5148H14.1347C14.022 10.5148 13.8906 10.4272 13.8468 10.3271L12.3386 6.83516C12.1822 6.44717 11.7003 6.13428 11.2811 6.13428H10.4738C9.94813 6.13428 9.69156 6.52852 9.89807 7.01038L11.2247 10.083C11.3311 10.3208 11.1997 10.5211 10.9369 10.5211H9.15338C9.00945 10.5211 8.8092 10.4397 8.70907 10.3396L7.28228 8.91903C7.13209 8.76884 6.84423 8.70001 6.63772 8.76884L5.80542 9.04419C5.44246 9.15683 5.26724 9.56985 5.44246 9.91404Z" stroke="#2274A5" stroke-linecap="round" stroke-linejoin="round"/>
</svg>
