<svg width="227" height="119" viewBox="0 0 227 119" fill="none" xmlns="http://www.w3.org/2000/svg">
<path d="M10.8747 41.9986C10.8747 42.5336 10.5537 42.8546 9.59066 42.9616C8.73464 43.0686 7.66461 42.9616 6.59458 42.6406C5.52455 42.4266 4.34752 41.9986 3.27749 41.5706C2.20746 41.1426 1.56544 40.6076 1.24444 40.1796C0.602419 36.0064 0.388416 32.2614 0.816428 28.9443C1.24444 25.6272 2.10046 22.7381 3.27749 20.277C4.45452 17.816 5.95256 15.5689 7.77161 13.7499C9.59066 11.9308 11.5167 10.3258 13.4428 9.04174C15.4758 7.75771 17.5089 6.58068 19.5419 5.72465C21.575 4.86863 23.608 4.11961 25.4271 3.5846C28.5302 2.51457 31.9542 1.76555 35.4853 1.44454C39.0164 1.01653 42.5475 0.802518 45.9716 0.802518C48.9677 0.802518 52.1778 0.909526 55.3879 1.01653C58.5979 1.23053 61.594 1.44454 64.4831 1.65854C67.0512 1.87255 69.6192 1.97955 72.0803 2.19356C74.5414 2.40756 77.0024 2.40756 79.2495 2.40756C82.0316 2.40756 84.5996 2.19355 86.8467 1.87255C89.0938 1.55154 91.1268 0.909524 92.7318 0.0535017C93.0528 -0.160504 93.3739 0.267504 93.6949 1.33753C93.9089 2.30056 94.1229 3.47759 94.2299 4.86863C94.3369 6.25967 94.3369 7.5437 94.3369 8.72073C94.3369 9.89776 94.1229 10.6468 93.8019 10.9678C91.7688 11.8238 89.5218 12.4658 87.0607 12.8938C84.5996 13.2148 82.1386 13.4289 79.4635 13.4289C76.5744 13.4289 73.4713 13.3219 70.4753 13.0008C67.3722 12.6798 64.2691 12.3588 61.059 12.0378C57.6349 11.7168 54.2108 11.2888 50.6797 10.9678C47.2556 10.6468 43.8316 10.4328 40.5145 10.4328C38.4814 10.4328 36.3414 10.5398 34.3083 10.7538C32.2753 10.9678 30.2422 11.1818 28.3162 11.6098C25.6411 12.1448 23.18 13.1078 20.719 14.4989C18.3649 15.7829 16.3318 17.709 14.6198 20.063C12.9077 22.4171 11.7307 25.4132 10.9817 29.0513C10.4467 32.5824 10.3397 36.8625 10.8747 41.9986ZM41.4775 10.8608C41.6915 10.6468 42.1195 10.5398 42.7615 10.6468C43.4035 10.7538 44.1526 11.0748 45.0086 11.5028C45.8646 11.9308 46.7206 12.4658 47.6837 13.1078C48.5397 13.7499 49.3957 14.4989 50.1447 15.3549C50.8937 16.2109 51.5358 17.0669 51.9638 17.923C52.3918 18.779 52.4988 19.742 52.3918 20.491C50.3587 24.0221 48.3257 27.7672 46.3996 31.8333C44.4736 35.8994 42.6545 40.0725 41.0495 44.3527C39.4444 48.6328 37.9464 53.0199 36.5554 57.407C35.1643 61.7941 34.0943 66.0742 33.1313 70.1404C32.2753 74.3135 31.5262 78.1656 31.0982 81.9107C30.6702 85.6558 30.4562 88.9728 30.6702 91.8619C30.6702 92.2899 30.2422 92.1829 29.3862 91.7549C28.5302 91.2199 27.5671 90.5779 26.6041 89.6149C25.5341 88.7588 24.5711 87.7958 23.715 86.8328C22.859 85.8698 22.324 85.1208 22.217 84.6927C21.896 81.5897 21.896 77.9516 22.324 73.9925C22.752 69.9264 23.394 65.7532 24.357 61.2591C25.3201 56.872 26.4971 52.2709 27.8881 47.6698C29.2792 43.0686 30.6702 38.4675 32.2753 34.0804C33.7733 29.6933 35.3783 25.4132 36.9834 21.4541C38.4814 17.495 39.9795 13.9639 41.4775 10.8608Z" fill="white"/>
<path d="M88.4099 69.613C87.4358 71.4276 86.2182 73.2422 84.8788 75.0569C83.5394 76.8715 82.0783 78.5794 80.2518 80.0738C78.5472 81.5682 76.599 82.8491 74.529 83.7031C72.459 84.6638 70.2673 85.0907 67.8321 84.984C66.3709 84.8772 65.1533 84.6638 63.9357 84.13C62.8398 83.5963 61.8657 82.9559 61.0134 82.1019C60.161 81.248 59.5522 80.2873 58.9434 79.2199C58.3346 78.1524 58.0911 76.9783 57.8475 75.8041C57.604 74.0962 57.604 72.495 57.8475 71.0006C58.0911 69.5062 58.4564 68.0118 58.9434 66.7309C59.4305 65.45 60.0393 64.0623 60.7698 62.7814C61.5004 61.5005 62.231 60.1128 63.0833 58.8319L64.4227 56.5903V56.697L66.0056 54.0284C66.2492 53.4947 66.7362 52.961 67.345 52.4273C67.9538 51.8936 69.0497 51.4666 70.5108 51.1464C69.7803 51.2531 69.0497 51.4666 68.6844 51.4666C68.3191 51.4666 67.8321 51.6801 67.4668 51.7868C66.7362 51.8936 66.0056 52.1071 65.2751 52.2138C64.5445 52.3205 63.6921 52.4273 62.5963 52.3205H61.9875C61.0134 54.1352 60.0393 55.8431 59.3087 57.551C58.5781 59.2589 57.8475 60.86 57.117 62.3544L56.9952 62.2477C56.8735 62.5679 56.5082 62.6746 55.8994 62.4612C55.2905 62.3544 54.56 62.0342 53.8294 61.6072C53.0988 61.1802 52.6118 60.7533 52.1247 60.3263C51.6377 59.8993 51.5159 59.3656 51.6377 59.0454V59.1521L55.8994 50.0789C55.047 49.225 54.56 48.1576 54.4382 46.8766C54.1947 45.2755 54.1947 43.7811 54.8035 42.6069C55.4123 41.4327 56.0211 39.9383 56.7517 38.2304C56.9952 37.59 57.3605 36.8428 57.604 35.9888C57.8476 35.1349 58.2128 34.1742 58.4564 33C59.4305 33.427 60.4046 33.8539 61.3787 34.2809C62.3528 34.7079 63.3269 35.2416 64.1792 35.8821C65.0315 36.5225 65.7621 37.163 66.3709 37.9102C66.9797 38.6574 67.345 39.6181 67.4668 40.5788C67.5885 41.0058 67.5885 41.5395 67.5885 42.0732C67.5885 42.6069 67.4668 43.2474 67.2233 43.9946L64.788 47.5171C64.5445 47.8373 64.788 47.8373 65.2751 47.6238C65.7621 47.4103 66.4927 46.9834 67.4668 46.4497C68.4409 45.9159 69.415 45.1687 70.5108 44.4215C71.6067 43.6743 72.7026 42.8204 73.7984 42.0732C74.8943 41.326 75.7466 40.5788 76.599 39.8316C77.4513 39.1911 77.9384 38.6574 78.1819 38.2304C78.5472 38.2304 79.0342 38.3372 79.643 38.6574C80.2518 38.9776 80.9824 39.2979 81.5912 39.7248C82.3218 40.1518 82.9306 40.472 83.4177 40.7923C83.9047 41.1125 84.27 41.326 84.3918 41.4327C85.1223 42.2867 85.4876 43.3541 85.4876 44.635C85.4876 45.8092 85.2441 47.1969 84.6353 48.6913C84.0265 50.1857 83.2959 51.6801 82.3218 53.388C81.3477 54.9891 80.2518 56.697 79.2777 58.4049C78.6689 59.3656 77.9383 60.3263 77.4513 61.1802C76.8425 62.1409 76.2337 63.1016 75.6249 64.0623C75.1378 64.8095 74.6508 65.6634 74.1637 66.5174C73.6767 67.4781 73.1896 68.4388 72.7026 69.3995C72.2155 70.3602 71.8502 71.3209 71.6067 72.2815C71.3632 73.2422 71.2414 73.9894 71.3632 74.6299C71.3632 74.9501 71.7285 75.0569 72.459 75.0569C73.0678 75.1636 73.9202 74.9501 74.7725 74.4164C75.6249 73.9894 76.599 73.349 77.5731 72.495C78.5472 71.6411 79.5213 70.7871 80.3736 69.613C81.3477 68.5455 82.0783 67.3713 82.6871 65.9837C83.5394 64.2758 84.3918 62.6746 85.1223 61.0735C85.8529 59.4723 86.4617 58.0847 86.9488 56.9105C87.1923 56.697 87.5576 56.5903 88.2882 56.8038C89.0187 57.0172 89.6275 57.2307 90.3581 57.6577C91.0887 58.0847 91.5757 58.5117 92.0628 59.1521C92.5498 59.6858 92.6716 60.1128 92.5498 60.5398V60.433L90.8452 64.3825L88.4099 69.613Z" fill="white"/>
<path d="M90.2672 38.2552C90.9092 37.9342 91.7652 37.9342 93.0493 38.4692C94.2263 38.8972 95.5103 39.6462 96.6874 40.7163C97.8644 41.6793 98.8274 42.8563 99.6834 44.0334C100.539 45.2104 100.86 46.4944 100.646 47.6715C100.539 48.0995 100.432 48.8485 100.218 49.8115C100.004 50.7745 99.6834 51.8446 99.3624 53.0216V52.9146C98.9344 54.6266 98.3994 56.5527 97.8644 58.6928C97.3294 60.8328 96.9014 62.8659 96.4734 65.0059C96.0453 67.146 95.7243 69.072 95.5103 70.8911C95.2963 72.7101 95.2963 74.2082 95.4033 75.2782C95.4033 75.7062 95.4033 75.9202 95.2963 75.9202H96.0453C97.4364 75.3852 98.6134 74.5292 99.6834 73.3522C100.753 72.1751 101.716 70.8911 102.573 69.393C103.429 67.895 104.178 66.29 104.927 64.5779C105.676 62.8659 106.318 61.2608 106.96 59.6558H106.853C106.96 59.3348 107.067 59.0138 107.281 58.7998C107.388 58.4787 107.602 58.1578 107.709 57.9437C108.244 55.0547 108.672 51.9516 109.207 48.7415C109.742 45.5314 110.17 42.1073 110.491 38.6832C111.133 38.3622 112.203 38.3622 113.38 38.7902C114.664 39.2182 115.948 39.9673 117.125 40.8233C118.302 41.7863 119.372 42.8563 120.228 44.0334C121.084 45.2104 121.405 46.4944 121.298 47.6715L114.557 78.5953C113.915 81.4844 113.273 84.2664 112.631 86.9415C111.989 89.5096 111.24 92.0777 110.598 94.3247C112.524 95.3947 114.45 96.5718 116.269 97.8558C118.088 99.1398 120.014 100.317 121.94 101.708L121.833 101.601C122.047 101.708 122.261 101.922 122.475 102.136C122.689 102.35 122.903 102.564 123.224 102.671C124.187 103.313 124.508 104.169 124.08 105.025C123.652 105.881 123.01 106.737 122.047 107.486C121.084 108.235 120.014 108.77 118.837 109.198C117.66 109.626 116.804 109.626 116.269 109.305L112.417 106.523L107.281 102.992C105.034 107.807 102.037 111.552 98.3994 114.227C94.7613 116.902 90.0532 118.186 84.168 118.186C82.242 118.186 80.4229 117.972 78.4969 117.544C76.5708 117.116 74.8588 116.367 73.2537 115.511C71.6487 114.548 70.2577 113.371 69.1876 111.873C68.1176 110.375 67.3686 108.556 66.9406 106.309C66.5126 103.527 66.7266 100.959 67.5826 98.6048C68.4386 96.2508 69.6156 94.2177 71.4347 92.3987C73.1467 90.6866 75.2868 89.2956 77.8549 88.3326C80.3159 87.3695 83.098 86.8345 85.9871 86.8345C87.5921 86.8345 89.0902 86.9415 90.3742 87.0485C91.6582 87.1555 92.9423 87.3695 94.1193 87.5835C95.2963 87.7975 96.3664 88.1186 97.4364 88.4396C98.5064 88.7606 99.5764 89.1886 100.753 89.6166C101.609 86.5135 102.466 83.0894 103.322 79.5583L102.359 80.7353C102.038 81.1634 101.502 81.5914 100.967 82.1264C100.432 82.6614 99.6834 83.0894 99.0414 83.5174C98.2924 83.9454 97.5434 84.2664 96.5804 84.5875C95.7243 84.9085 94.7613 85.0155 93.6913 85.0155C91.3372 84.9085 89.6252 83.9454 88.2341 82.1264C86.8431 80.3073 85.9871 78.0603 85.5591 75.4922C85.4521 74.9572 85.3451 74.3152 85.3451 73.5662C85.2381 72.9241 85.2381 72.2821 85.2381 71.6401C85.3451 69.286 85.6661 66.397 86.0941 63.0799C86.5221 59.7628 87.1641 56.3387 87.6991 53.1286C88.1271 50.4535 88.5551 47.8855 88.8762 45.5314C89.3042 43.0703 89.5182 41.0373 89.6252 39.4322L90.2672 38.2552ZM81.814 111.98C83.633 111.98 85.2381 111.659 86.7361 111.017C88.2341 110.375 89.6252 109.412 90.9092 108.128C92.1932 106.844 93.3703 105.346 94.4403 103.634C95.5103 101.922 96.4734 99.9959 97.4364 97.9628C94.3333 96.7858 91.0162 96.1438 87.3781 96.0368C85.6661 96.0368 83.847 96.2508 81.921 96.6788C79.9949 97.1068 78.2829 97.6418 76.7848 98.4978C75.2868 99.3538 74.1098 100.424 73.2537 101.601C72.3977 102.885 72.1837 104.383 72.5047 106.095C72.7187 107.272 73.0397 108.235 73.6818 108.984C74.3238 109.733 75.0728 110.375 76.0358 110.803C76.8918 111.231 77.8549 111.552 78.8179 111.766C79.9949 111.873 80.9579 111.98 81.814 111.98Z" fill="white"/>
<path d="M128.367 38.5744C128.902 38.2534 129.651 38.2534 130.507 38.4674C131.47 38.6814 132.433 39.1094 133.396 39.6444C134.359 40.1794 135.429 40.9284 136.285 41.7845C137.249 42.6405 137.998 43.4965 138.533 44.4595C140.566 42.4265 142.813 40.9284 145.274 39.6444C147.735 38.4674 150.196 37.9324 152.55 38.2534C154.262 38.4674 155.76 39.0024 157.044 39.7514C158.328 40.5004 159.398 41.3565 160.254 42.5335C161.11 43.6035 161.752 44.8876 162.287 46.1716C162.822 47.4556 163.143 48.9537 163.357 50.3447C163.571 51.5217 163.678 52.8058 163.678 53.9828C163.678 55.1598 163.571 56.3369 163.571 57.4069C163.143 60.617 162.287 63.8271 161.11 66.9302C159.933 70.0332 158.328 72.8153 156.402 75.3834C154.476 77.9514 152.336 79.9845 149.875 81.5896C147.414 83.1946 144.846 84.1576 142.171 84.4786C139.71 84.3716 137.57 83.8366 135.857 82.8736C134.145 81.9106 132.754 80.5195 131.684 79.0215C131.577 79.2355 131.47 79.5565 131.363 79.8775C131.256 80.1985 131.149 80.4125 131.042 80.7335C130.4 82.8736 129.758 85.1206 129.116 87.4747C128.474 89.8288 127.939 92.1828 127.511 94.6439C127.083 96.998 126.655 99.459 126.548 101.92C126.334 104.381 126.334 106.735 126.441 109.089C126.548 109.731 126.12 110.052 125.157 110.052C124.194 110.052 123.231 109.838 122.161 109.41C121.091 108.982 120.021 108.447 118.951 107.698C117.988 107.056 117.346 106.307 117.132 105.558C116.811 102.99 116.704 100.315 116.918 97.747C117.025 95.1789 117.346 92.6109 117.774 90.0428C118.202 87.4747 118.737 84.9066 119.379 82.3386C120.021 79.7705 120.77 77.2024 121.412 74.6344C122.054 72.3873 122.589 70.2472 123.124 68.2142C123.659 66.1811 124.087 64.0411 124.622 61.901V62.115C124.836 60.51 125.157 59.0119 125.478 57.2999C125.799 55.6948 126.12 54.0898 126.334 52.4848C126.762 50.0237 127.19 47.5626 127.618 45.2086C127.939 42.8545 128.153 40.6074 128.367 38.5744ZM134.573 67.6792L134.466 68.3212L134.68 70.0332C134.894 71.2103 135.322 72.1733 135.857 73.1363C136.392 74.0993 137.356 74.5274 138.533 74.6344C139.71 74.7414 140.887 74.4204 142.171 73.5643C143.455 72.7083 144.632 71.6383 145.809 70.1402C146.986 68.7492 148.056 67.0371 149.019 65.2181C149.982 63.399 150.838 61.473 151.587 59.547C152.336 57.6209 152.764 55.8018 153.085 53.9828C153.406 52.1637 153.406 50.5587 153.192 49.1677C152.978 47.5626 152.122 46.7066 150.838 46.7066C149.661 46.5996 148.484 46.8136 147.307 47.2416C146.13 47.6696 144.846 48.3116 143.669 49.0607C142.492 49.8097 141.315 50.7727 140.245 51.9497C139.175 53.1268 138.212 54.1968 137.356 55.5878C136.928 57.5139 136.5 59.547 135.964 61.687C135.429 63.8271 135.001 65.8601 134.573 67.6792Z" fill="white"/>
<path d="M139.278 110.268C138.315 110.268 137.459 109.947 136.924 109.305C136.282 108.663 135.961 107.914 135.961 106.951C135.961 105.774 136.389 104.811 137.352 103.848C138.208 102.991 139.278 102.563 140.455 102.563C141.418 102.563 142.274 102.884 142.809 103.526C143.451 104.169 143.772 104.918 143.772 105.881C143.772 107.058 143.344 108.021 142.381 108.984C141.525 109.84 140.455 110.268 139.278 110.268Z" fill="white"/>
<path d="M169.137 99.7803C169.458 99.6733 169.779 99.7803 169.993 99.8873C170.207 99.9943 170.314 100.315 170.207 100.636C170.1 100.85 170.1 100.957 169.993 101.171C169.886 101.385 169.779 101.599 169.565 101.92C169.244 102.455 168.923 102.99 168.495 103.632C168.067 104.274 167.639 104.809 167.211 105.237C166.355 106.2 165.392 107.163 164.215 107.912C163.038 108.662 161.861 109.197 160.684 109.625C159.4 109.946 158.116 110.16 156.832 110.053C155.548 109.946 154.264 109.625 152.98 108.983C151.696 108.34 150.839 107.377 150.197 106.2C149.555 105.023 149.234 103.739 149.127 102.348C149.02 100.957 149.234 99.5663 149.555 98.0682C149.983 96.5702 150.518 95.1791 151.374 94.0021C152.231 92.7181 153.194 91.6481 154.478 90.792C155.655 89.936 157.153 89.401 158.758 89.187C159.828 89.08 160.898 89.08 161.968 89.294C162.931 89.508 163.787 89.936 164.536 90.685C165.178 91.327 165.606 91.9691 165.927 92.9321C166.248 93.7881 166.355 94.6441 166.248 95.5001C166.248 96.3562 165.927 97.2122 165.499 97.9612C165.071 98.7102 164.536 99.3523 163.68 99.6733C162.824 100.101 161.968 100.208 161.112 100.101C160.363 99.8873 159.721 99.5663 159.186 99.2452C158.651 98.8172 158.33 98.4962 158.223 98.0682C158.116 97.6402 158.33 97.4262 158.758 97.4262C159.507 97.5332 160.256 97.2122 160.898 96.6772C161.54 96.1422 161.968 95.5002 162.289 94.8581C162.503 94.2161 162.61 93.6811 162.503 93.3601C162.396 92.9321 162.289 92.7181 161.968 92.5041C161.647 92.2901 161.326 92.2901 160.898 92.3971C160.47 92.5041 159.935 92.6111 159.507 92.9321C158.758 93.3601 158.116 94.0021 157.474 94.9651C156.832 95.8212 156.297 96.7842 155.762 97.7472C155.227 98.7102 155.013 99.7803 154.906 100.85C154.799 101.92 154.906 102.776 155.227 103.632C155.548 104.381 155.976 105.023 156.618 105.558C157.26 106.093 157.902 106.414 158.651 106.628C159.4 106.842 160.256 106.842 161.219 106.628C162.182 106.414 163.145 105.986 164.108 105.344C164.857 104.809 165.606 104.167 166.248 103.418C166.89 102.669 167.532 101.92 168.067 101.064C168.281 100.743 168.388 100.529 168.602 100.422C168.816 100.315 168.923 99.7803 169.137 99.7803Z" fill="white"/>
<path d="M189.03 100.85C189.137 100.636 189.351 100.529 189.565 100.529C189.779 100.529 189.993 100.636 190.1 100.85C190.207 101.064 190.314 101.385 190.207 101.813C190.207 102.241 189.993 102.776 189.672 103.418C189.244 104.167 188.816 104.916 188.174 105.558C187.639 106.2 186.997 106.735 186.248 107.163C185.499 107.591 184.643 107.912 183.68 108.233C182.717 108.447 181.54 108.554 180.256 108.447C178.651 109.517 177.046 110.052 175.441 110.159C173.729 110.266 172.338 109.838 170.947 109.089C169.663 108.34 168.593 107.163 167.951 105.665C167.202 104.167 166.988 102.241 167.309 99.994C167.523 98.71 167.844 97.426 168.272 96.142C168.7 94.8579 169.342 93.7879 170.198 92.8249C170.519 92.3968 170.947 92.0758 171.375 91.7548C171.803 91.4338 172.338 91.1128 172.873 90.7918C173.408 90.5778 173.943 90.3638 174.478 90.2568C175.013 90.1498 175.548 90.2568 176.083 90.3638C176.19 90.2568 176.297 90.2568 176.404 90.2568C176.511 90.2568 176.618 90.1498 176.725 90.1498C178.33 89.5078 179.721 89.2938 180.898 89.6148C182.075 89.8288 183.038 90.3638 183.68 91.2198C184.429 92.0758 184.857 93.0389 185.178 94.3229C185.499 95.6069 185.499 96.891 185.392 98.282C185.285 99.566 184.964 100.743 184.429 102.027C184.001 103.311 183.359 104.381 182.61 105.451C183.359 105.558 184.108 105.558 184.75 105.344C185.392 105.13 185.927 104.702 186.462 104.274C186.997 103.846 187.425 103.311 187.746 102.776C188.067 102.241 188.709 101.385 189.03 100.85ZM172.659 103.311C172.98 104.381 173.408 105.237 174.157 105.665C174.906 106.2 175.762 106.307 176.618 105.879C175.548 104.809 174.799 103.418 174.264 101.92C173.729 100.315 173.408 98.817 173.408 97.319C172.98 98.175 172.659 99.138 172.445 100.315C172.338 101.385 172.445 102.455 172.659 103.311ZM181.647 97.854C181.861 96.463 181.754 95.2859 181.54 94.4299C181.219 93.5739 180.791 93.0389 180.363 92.8249C179.828 92.6108 179.4 92.8249 178.865 93.3599C178.33 93.8949 178.009 94.9649 177.902 96.463C177.795 97.64 177.902 98.817 178.223 99.994C178.544 101.171 179.079 102.241 179.721 103.204C180.256 102.455 180.577 101.599 181.005 100.636C181.219 99.673 181.54 98.817 181.647 97.854Z" fill="white"/>
<path d="M225.631 101.28C225.738 101.066 225.845 100.959 226.059 101.066C226.273 101.066 226.38 101.28 226.487 101.494C226.594 101.708 226.594 102.029 226.594 102.564C226.594 102.992 226.38 103.634 226.059 104.276C225.631 105.025 225.203 105.881 224.561 106.63C223.919 107.379 223.277 108.021 222.528 108.556C221.779 109.091 220.923 109.519 220.067 109.84C219.211 110.161 218.248 110.268 217.391 110.161C215.893 109.947 214.716 109.412 214.074 108.556C213.325 107.593 212.897 106.416 212.79 105.025C212.683 104.169 212.683 103.206 212.79 102.243C212.897 101.28 213.004 100.317 213.218 99.3536C213.432 98.7116 213.539 97.9626 213.753 97.1065C213.967 96.2505 214.181 95.3945 214.395 94.5385C214.395 93.6825 214.288 93.2544 213.967 93.3614C213.646 93.3614 213.111 93.6825 212.576 94.3245C211.934 94.9665 211.292 95.8225 210.543 96.8925C209.794 97.9626 209.045 99.2466 208.296 100.638C207.547 102.029 206.798 103.42 206.156 104.918C205.514 106.416 204.979 107.914 204.551 109.305C204.444 109.626 204.337 109.84 204.23 110.054C204.123 110.268 203.909 110.268 203.588 110.268C203.053 110.268 202.518 110.268 201.983 110.054C201.448 109.84 200.913 109.626 200.485 109.305C200.057 108.984 199.736 108.556 199.522 108.021C199.308 107.486 199.201 106.951 199.415 106.309C199.629 105.132 199.95 104.062 200.164 102.885C200.378 101.708 200.699 100.638 201.02 99.4606C201.127 99.1396 201.127 98.8186 201.234 98.4976C201.341 98.1766 201.448 97.8556 201.448 97.5346C201.555 97.1066 201.555 96.7855 201.662 96.4645C201.769 96.1435 201.876 95.8225 201.983 95.3945C202.197 94.3245 202.197 93.5755 201.983 93.3614C201.769 93.1474 201.341 93.2544 200.913 93.5754C200.485 93.8965 199.843 94.6455 199.094 95.6085C198.345 96.5715 197.703 97.6416 196.954 98.9256C196.205 100.21 195.456 101.601 194.814 103.099C194.065 104.597 193.53 105.988 192.995 107.486C192.888 107.914 192.781 108.235 192.674 108.556C192.567 108.877 192.46 109.198 192.353 109.519C192.246 109.84 192.246 109.947 192.139 109.947C192.032 109.947 191.818 110.054 191.497 110.054C190.962 110.054 190.427 110.054 189.892 109.84C189.357 109.626 188.822 109.412 188.394 109.091C187.966 108.77 187.645 108.342 187.431 107.807C187.217 107.272 187.11 106.737 187.324 106.095C187.966 103.313 188.608 100.638 189.25 97.9626C189.892 95.2875 190.534 92.6124 191.176 89.8303C191.176 89.6163 191.283 89.5094 191.497 89.5094C192.139 89.4024 192.888 89.4024 193.53 89.5094C194.172 89.5094 194.707 89.7234 195.135 89.9374C195.563 90.1514 195.884 90.5794 196.098 91.1144C196.312 91.6494 196.312 92.2914 196.098 93.1474C195.991 93.6825 195.884 94.2175 195.777 94.7525C195.67 95.2875 195.563 95.8225 195.349 96.3575C195.991 95.0735 196.633 93.8965 197.382 92.8264C198.131 91.7564 199.201 90.9004 200.378 90.2584C200.806 90.0444 201.234 89.8304 201.769 89.7234C202.304 89.6164 202.946 89.5093 203.588 89.4023C204.23 89.4023 204.765 89.4023 205.407 89.4023C205.942 89.4023 206.477 89.6164 206.905 89.7234C207.44 89.9374 207.975 90.3654 208.189 90.9004C208.51 91.4354 208.51 92.1844 208.296 93.1474C208.189 93.6825 208.082 94.2175 207.975 94.7525C207.868 95.2875 207.761 95.8225 207.654 96.3575C208.296 95.0735 208.938 93.8965 209.687 92.8264C210.436 91.7564 211.506 90.9004 212.683 90.2584C213.111 89.9374 213.753 89.7233 214.395 89.6163C215.037 89.5093 215.786 89.4024 216.535 89.5094C217.284 89.6164 217.926 89.7234 218.569 90.0444C219.211 90.3654 219.639 90.7934 219.96 91.3284C220.388 92.0774 220.495 92.8264 220.495 93.7895C220.495 94.7525 220.281 95.6085 219.96 96.5715C219.746 97.3206 219.532 97.9626 219.318 98.7116C219.211 99.4606 218.997 100.103 218.783 100.852C218.676 101.494 218.569 102.029 218.569 102.564C218.462 103.099 218.462 103.634 218.569 104.062C218.569 105.239 218.997 106.095 219.639 106.416C220.281 106.737 221.137 106.63 222.207 105.881C222.635 105.56 222.956 105.239 223.384 104.811C223.705 104.383 224.026 103.955 224.347 103.527C224.668 103.099 224.882 102.671 225.096 102.35C225.31 102.029 225.417 101.494 225.631 101.28Z" fill="white"/>
</svg>
