<svg width="23" height="23" viewBox="0 0 23 23" fill="none" xmlns="http://www.w3.org/2000/svg">
<circle cx="11.5" cy="11.5" r="11" fill="white" stroke="#2274A5"/>
<path d="M17.1875 14.1563L5.8125 14.1562L5.8125 14.9688L6.625 14.9688L6.625 15.7813L7.4375 15.7813L7.4375 14.9688L9.46875 14.9688L9.46875 15.7813L10.2812 15.7813L10.2812 14.9688L12.3125 14.9688L12.3125 15.7813L13.125 15.7813L13.125 14.9688L15.1562 14.9688L15.1562 15.7813L15.9687 15.7813L15.9687 14.9688L17.1875 14.9688L17.1875 14.1563Z" fill="#2274A5"/>
<path d="M8.25 10.5L5.8125 10.5L5.8125 9.6875L8.25 9.6875L8.25 8.875L5.8125 8.875L5.8125 8.0625L8.25 8.0625C8.46542 8.06272 8.67196 8.14839 8.82429 8.30071C8.97661 8.45304 9.06228 8.65958 9.0625 8.875L9.0625 9.6875C9.06228 9.90292 8.97661 10.1095 8.82429 10.2618C8.67196 10.4141 8.46542 10.4998 8.25 10.5Z" fill="#2274A5"/>
<path d="M16.5984 9.78094L13.1128 6.58619C12.439 5.96717 11.557 5.62408 10.642 5.625L5.8125 5.625L5.8125 6.4375L9.875 6.4375L9.875 8.0625C9.87522 8.27792 9.96089 8.48446 10.1132 8.63679C10.2655 8.78912 10.4721 8.87479 10.6875 8.875L14.4071 8.875L16.0492 10.3802C16.1984 10.5169 16.3029 10.6955 16.3489 10.8926C16.3949 11.0897 16.3803 11.2961 16.3069 11.4847C16.2336 11.6733 16.1049 11.8354 15.9379 11.9497C15.7708 12.0639 15.5731 12.125 15.3708 12.125L5.8125 12.125L5.8125 12.9375L15.3703 12.9375C15.7365 12.9375 16.094 12.8269 16.3962 12.6203C16.6984 12.4136 16.9312 12.1204 17.0639 11.7792C17.1967 11.438 17.2233 11.0647 17.1402 10.7081C17.0571 10.3515 16.8683 10.0284 16.5984 9.78094ZM10.6875 8.0625L10.6875 6.43953C11.3832 6.44936 12.0509 6.71469 12.5636 7.185L13.5211 8.0625L10.6875 8.0625Z" fill="#2274A5"/>
</svg>
